<?xml version="1.0" encoding="UTF-8" standalone="no"?>
<svg
   xmlns:dc="http://purl.org/dc/elements/1.1/"
   xmlns:cc="http://creativecommons.org/ns#"
   xmlns:rdf="http://www.w3.org/1999/02/22-rdf-syntax-ns#"
   xmlns:svg="http://www.w3.org/2000/svg"
   xmlns="http://www.w3.org/2000/svg"
   viewBox="0 0 773.33331 142.54668"
   height="142.54668"
   width="773.33331"
   xml:space="preserve"
   id="svg2"
   version="1.1"><metadata
     id="metadata8"><rdf:RDF><cc:Work
         rdf:about=""><dc:format>image/svg+xml</dc:format><dc:type
           rdf:resource="http://purl.org/dc/dcmitype/StillImage" /></cc:Work></rdf:RDF></metadata><defs
     id="defs6" /><g
     transform="matrix(1.3333333,0,0,-1.3333333,0,142.54667)"
     id="g10"><g
       transform="scale(0.1)"
       id="g12"><path
         id="path14"
         style="fill:#100f0d;fill-opacity:1;fill-rule:nonzero;stroke:none"
         d="m 146.531,1026.51 c 101.633,49.55 220.52,51.1 329.461,28.78 82.528,-19.79 170.129,-66.544 201.293,-150.477 31.168,-96.711 24.43,-199.891 24.567,-299.981 -98.961,0.422 -197.922,0 -296.739,0.145 -2.09,83.105 4.492,166.625 -4.066,249.433 1.812,57.27 -99.676,56.856 -98.266,-0.418 -10.668,-130.265 -2.527,-261.367 -5.039,-392.051 2.391,-83.378 -6.039,-167.902 7.16,-250.554 8.141,-33.149 49.692,-35.676 75.942,-24.438 20.203,14.453 20.633,40.989 22.73,63.313 3.227,62.043 0.699,124.082 1.547,186.125 99.082,0.261 198.055,0.133 297.149,0.133 -2.95,-94.168 5.472,-194.403 -34.106,-282.411 C 602.461,45.3203 465.465,4.46875 344.742,8.23828 238.336,9.21875 116.504,33.7813 50.3828,125.457 3.07031,199.578 4.76172,291.941 0.972656,376.719 1.67578,527.066 -4.08594,677.691 6.30469,827.754 10.6563,914.07 69.8828,990.301 146.531,1026.51" /><path
         id="path16"
         style="fill:#100f0d;fill-opacity:1;fill-rule:nonzero;stroke:none"
         d="m 861.582,1050.23 c 143.748,1.97 287.618,1.82 431.368,0 54.6,-340.535 113,-680.515 168.58,-1020.9214 -92.5,0.293 -185.01,0 -277.51,0.293 -8.14,63.7148 -14.17,127.7504 -24.15,191.3244 -32.99,-0.559 -66.12,-0.559 -99.11,-0.403 5.89,56.973 12.35,113.965 18.53,170.989 20.35,0 40.57,0.136 60.92,0.136 -18.53,145.829 -32.43,292.383 -54.74,437.676 C 1056.55,562.332 1021.74,296.031 990.023,29.3203 897.242,29.4492 804.32,29.4492 711.531,29.4492 760.934,369.703 813.164,709.703 861.582,1050.23" /><path
         id="path18"
         style="fill:#100f0d;fill-opacity:1;fill-rule:nonzero;stroke:none"
         d="m 1512.35,1051.22 c 98.4,0.27 196.94,0.14 295.48,0.14 0.15,-272.321 0,-544.508 0.15,-816.809 60.22,-0.293 120.43,-0.168 180.65,-0.168 0.28,-68.352 0.15,-136.5627 0.15,-204.9338 -158.76,-0.1601 -317.52,0.1406 -476.28,0 -0.3,340.5388 -0.02,681.2348 -0.15,1021.7708 v 0" /><path
         id="path20"
         style="fill:#100f0d;fill-opacity:1;fill-rule:nonzero;stroke:none"
         d="m 2058.96,1051.22 c 98.67,0.27 197.5,0.14 296.31,0.14 0.28,-272.321 0,-544.508 0.15,-816.809 59.65,-0.293 119.31,-0.168 178.96,-0.168 0.14,-68.352 0.14,-136.5627 0.14,-204.9338 -158.48,0 -316.96,0 -475.44,0 -0.27,340.5388 0.01,681.2348 -0.12,1021.7708" /><path
         id="path22"
         style="fill:#100f0d;fill-opacity:1;fill-rule:nonzero;stroke:none"
         d="m 3198.34,875.469 c 0.16,-224.309 0.16,-448.496 0,-672.793 28.23,6.179 71.17,0.418 83.65,33.828 17.41,73.699 8.14,150.613 10.53,225.855 -2.38,122.969 5.21,246.504 -4.35,369.329 -4.06,44.199 -57.1,42.382 -89.83,43.781 z m -296.32,175.751 c 130.54,0.98 261.23,0 391.62,-5.76 68.66,-4.91 140.51,-9.68 201.73,-44.36 55.17,-33.131 88.99,-95.87 89.54,-160.018 9,-177.715 3.81,-355.977 4.38,-533.828 -3.51,-73.418 4.21,-158.777 -48.99,-217.297 -59.25,-54.1757 -144.28,-56.8672 -220.22,-59.9257 -139.25,-1.5625 -278.64,0 -418.04,-0.5821 -0.15,340.5388 -0.02,681.2348 -0.02,1021.7708" /><path
         id="path24"
         style="fill:#100f0d;fill-opacity:1;fill-rule:nonzero;stroke:none"
         d="m 3663.27,1051.22 c 98.26,0.29 196.52,0 294.79,0.14 0.13,-248.176 0,-496.352 0,-744.536 0.57,-32.844 -0.16,-65.969 6.03,-98.39 4.49,-37.215 70.05,-35.516 72.87,1.836 6.58,31.972 5.9,64.835 6.29,97.265 -0.28,247.903 0.16,495.805 -0.28,743.695 98.26,0.42 196.52,0 294.93,0.15 -0.28,-238.638 0.85,-477.271 -0.57,-715.759 -3.09,-65.683 4.21,-137.984 -34.8,-195.113 C 4256.07,62.6211 4165.82,23.0313 4078.51,13.75 c -110.62,-12.62891 -230.9,0.4102 -323.56,66.9609 -58.24,41.4181 -88.7,112.7231 -88.02,183.1911 -7.06,262.317 -2.13,524.825 -3.66,787.318" /><path
         id="path26"
         style="fill:#100f0d;fill-opacity:1;fill-rule:nonzero;stroke:none"
         d="m 4401.46,1051.36 c 216.31,0 432.62,0 648.94,0 0.15,-68.356 0,-136.579 0.15,-204.934 -58.67,0 -117.34,0.133 -175.86,-0.149 0,-272.312 0,-544.511 0,-816.8278 -99.13,0 -198.23,-0.1601 -297.33,0.1406 0,272.1952 0,544.5122 0,816.6872 -58.39,0.149 -116.77,0.282 -175.17,0 -1.26,68.352 -0.59,136.727 -0.73,205.083" /><path
         id="path28"
         style="fill:#100f0d;fill-opacity:1;fill-rule:nonzero;stroke:none"
         d="m 5103.61,1051.36 c 90.96,-1.12 181.93,2.39 272.89,-1.82 55.85,-183.47 116.93,-365.243 174.74,-548.153 13.35,-45.215 35.24,-89.414 33.83,-137.578 -0.69,-113.262 -0.14,-226.555 -0.39,-339.8285 -91.1,-0.1407 -182.09,-0.1407 -273.19,0 0,108.6445 -0.4,217.2855 0.31,326.0785 0.27,24.39 -1.28,49.273 -8.99,72.711 -66.81,209.296 -132.67,419.015 -199.2,628.59" /><path
         id="path30"
         style="fill:#100f0d;fill-opacity:1;fill-rule:nonzero;stroke:none"
         d="m 5528.8,1051.22 c 90.39,0.29 180.8,0 271.2,0.14 -63.74,-193.43 -126.62,-387.141 -190.36,-580.559 -40.43,129.121 -85.73,257.019 -122.39,387.137 8.57,65.261 28.37,128.71 41.55,193.282" /><path
         id="path32"
         style="fill:#100f0d;fill-opacity:1;fill-rule:nonzero;stroke:none"
         d="m 2536.22,757.977 c -6.18,-83.528 -3.66,-167.461 -1.54,-251.133 l 19.79,6.457 c 8.85,77.066 6.18,156.101 1.83,233.433 -4.92,2.825 -15.03,8.442 -20.08,11.243 z m -35.38,48.289 c 51.94,22.882 129.7,0.707 138.27,-61.895 5.75,-75.516 6.31,-152.156 -0.56,-227.691 -15.72,-86.867 -161.01,-90.957 -183.89,-6.731 -11.23,67.508 -4.92,137 -5.2,205.215 -1.68,36.926 15.59,76.649 51.38,91.102" /><path
         id="path34"
         style="fill:#100f0d;fill-opacity:1;fill-rule:nonzero;stroke:none"
         d="m 2669.85,806.973 c 44.78,0.144 89.42,0.281 134.05,0 -0.14,-23.164 -0.28,-46.457 -0.28,-69.758 -18.11,-0.149 -36.22,-0.281 -54.32,-0.418 0,-22.317 -0.15,-44.633 -0.15,-66.965 16.14,-0.137 32.43,-0.281 48.85,-0.547 0,-21.347 0,-42.683 0.15,-64.023 -16.43,-0.137 -32.71,-0.274 -48.85,-0.418 0,-49.555 -0.15,-98.957 0,-148.535 -26.53,0 -52.92,-0.137 -79.3,-0.286 -0.15,117.09 -0.01,234.012 -0.15,350.95" /><path
         id="path36"
         style="fill:#100f0d;fill-opacity:1;fill-rule:nonzero;stroke:none"
         d="m 5678.43,64.5703 h 11.16 c 5.62,0 9.59,0.6797 11.95,2.0703 2.36,1.4102 3.54,3.668 3.54,6.8242 0,2.8321 -1.14,4.9688 -3.49,6.3868 -2.31,1.4336 -5.86,2.1211 -10.57,2.1211 h -12.57 V 64.5781 h -0.02 z m -13.67,-36.4414 v 64.0742 h 32.09 c 7.94,0 13.74,-1.7343 17.33,-5.2304 3.6,-3.4883 5.4,-7.793 5.4,-12.8946 0,-4.9297 -1.48,-8.9062 -4.54,-11.8789 -3.03,-3.0195 -7.58,-5.0195 -13.69,-6.0976 2.77,-0.9805 4.99,-2.3399 6.61,-4.0508 1.64,-1.6992 4.27,-5.4024 7.81,-11.0703 l 7.89,-12.8516 h -16.91 l -5.64,10.3203 c -3.39,6.1406 -6.37,10.3399 -8.96,12.5821 -2.6,2.2187 -5.98,3.3398 -10.14,3.3398 h -3.56 v -26.25 h -13.68 v 0.0078 z m 29.58,80.9101 c -15.66,0 -28.34,-4.91 -38.09,-14.6679 -9.72,-9.793 -14.59,-21.1328 -14.59,-34 0,-13.3203 5.03,-24.7695 15.11,-34.2695 10.05,-9.5118 22.14,-14.3008 36.23,-14.3008 14.05,0 26.1,4.789 36.18,14.3008 10.05,9.5078 15.06,20.9492 15.06,34.2695 0,9.1953 -2.52,17.6914 -7.58,25.4453 -5.05,7.7539 -11.53,13.5547 -19.5,17.4066 -7.93,3.855 -15.53,5.816 -22.82,5.816 z m -3.15,11.731 c 19.03,0 34.74,-5.989 47.03,-17.961 12.31,-11.9809 18.46,-26.1215 18.46,-42.4184 0,-16.6015 -6.25,-30.832 -18.75,-42.6523 C 5725.42,5.92969 5710.41,0 5692.83,0 c -17.66,0 -32.7,5.89844 -45.16,17.7109 -12.46,11.8008 -18.68,26.0274 -18.68,42.6875 0,11.7188 3.3,22.4922 9.88,32.293 6.58,9.8046 14.83,16.9376 24.73,21.4106 9.88,4.453 19.09,6.668 27.59,6.668" /></g></g></svg>